<?xml version="1.0" encoding="UTF-8" standalone="no"?>
<!DOCTYPE svg PUBLIC "-//W3C//DTD SVG 1.1//EN"
 "http://www.w3.org/Graphics/SVG/1.1/DTD/svg11.dtd">
<!-- Generated by graphviz version 2.38.0 (20140413.2041)
 -->
<!-- Title: %3 Pages: 1 -->
<svg width="350pt" height="332pt"
 viewBox="0.00 0.00 350.00 332.00" xmlns="http://www.w3.org/2000/svg" xmlns:xlink="http://www.w3.org/1999/xlink">
<g id="graph0" class="graph" transform="scale(1 1) rotate(0) translate(4 328)">
<title>%3</title>
<polygon fill="white" stroke="none" points="-4,4 -4,-328 346,-328 346,4 -4,4"/>
<!-- Mul(Add(Integer(3), Mul(Integer(2), Pow(Symbol(x), Integer(2)))), Pow(Add(Integer(5), Symbol(y)), NegativeOne()))_() -->
<g id="node1" class="node"><title>Mul(Add(Integer(3), Mul(Integer(2), Pow(Symbol(x), Integer(2)))), Pow(Add(Integer(5), Symbol(y)), NegativeOne()))_()</title>
<ellipse fill="none" stroke="black" cx="153" cy="-306" rx="27" ry="18"/>
<text text-anchor="middle" x="153" y="-302.3" font-family="Times,serif" font-size="14.00">Mul</text>
</g>
<!-- Pow(Add(Integer(5), Symbol(y)), NegativeOne())_(0,) -->
<g id="node2" class="node"><title>Pow(Add(Integer(5), Symbol(y)), NegativeOne())_(0,)</title>
<ellipse fill="none" stroke="black" cx="117" cy="-234" rx="27.0966" ry="18"/>
<text text-anchor="middle" x="117" y="-230.3" font-family="Times,serif" font-size="14.00">Pow</text>
</g>
<!-- Mul(Add(Integer(3), Mul(Integer(2), Pow(Symbol(x), Integer(2)))), Pow(Add(Integer(5), Symbol(y)), NegativeOne()))_()&#45;&gt;Pow(Add(Integer(5), Symbol(y)), NegativeOne())_(0,) -->
<g id="edge1" class="edge"><title>Mul(Add(Integer(3), Mul(Integer(2), Pow(Symbol(x), Integer(2)))), Pow(Add(Integer(5), Symbol(y)), NegativeOne()))_()&#45;&gt;Pow(Add(Integer(5), Symbol(y)), NegativeOne())_(0,)</title>
<path fill="none" stroke="black" d="M144.65,-288.765C140.288,-280.283 134.853,-269.714 129.959,-260.197"/>
<polygon fill="black" stroke="black" points="132.99,-258.439 125.304,-251.147 126.765,-261.641 132.99,-258.439"/>
</g>
<!-- Add(Integer(3), Mul(Integer(2), Pow(Symbol(x), Integer(2))))_(1,) -->
<g id="node7" class="node"><title>Add(Integer(3), Mul(Integer(2), Pow(Symbol(x), Integer(2))))_(1,)</title>
<ellipse fill="none" stroke="black" cx="189" cy="-234" rx="27" ry="18"/>
<text text-anchor="middle" x="189" y="-230.3" font-family="Times,serif" font-size="14.00">Add</text>
</g>
<!-- Mul(Add(Integer(3), Mul(Integer(2), Pow(Symbol(x), Integer(2)))), Pow(Add(Integer(5), Symbol(y)), NegativeOne()))_()&#45;&gt;Add(Integer(3), Mul(Integer(2), Pow(Symbol(x), Integer(2))))_(1,) -->
<g id="edge2" class="edge"><title>Mul(Add(Integer(3), Mul(Integer(2), Pow(Symbol(x), Integer(2)))), Pow(Add(Integer(5), Symbol(y)), NegativeOne()))_()&#45;&gt;Add(Integer(3), Mul(Integer(2), Pow(Symbol(x), Integer(2))))_(1,)</title>
<path fill="none" stroke="black" d="M161.35,-288.765C165.712,-280.283 171.147,-269.714 176.041,-260.197"/>
<polygon fill="black" stroke="black" points="179.235,-261.641 180.696,-251.147 173.01,-258.439 179.235,-261.641"/>
</g>
<!-- Add(Integer(5), Symbol(y))_(0, 0) -->
<g id="node3" class="node"><title>Add(Integer(5), Symbol(y))_(0, 0)</title>
<ellipse fill="none" stroke="black" cx="45" cy="-162" rx="27" ry="18"/>
<text text-anchor="middle" x="45" y="-158.3" font-family="Times,serif" font-size="14.00">Add</text>
</g>
<!-- Pow(Add(Integer(5), Symbol(y)), NegativeOne())_(0,)&#45;&gt;Add(Integer(5), Symbol(y))_(0, 0) -->
<g id="edge3" class="edge"><title>Pow(Add(Integer(5), Symbol(y)), NegativeOne())_(0,)&#45;&gt;Add(Integer(5), Symbol(y))_(0, 0)</title>
<path fill="none" stroke="black" d="M102.082,-218.496C92.0415,-208.735 78.6237,-195.69 67.3199,-184.7"/>
<polygon fill="black" stroke="black" points="69.5091,-181.947 59.8993,-177.485 64.6295,-186.966 69.5091,-181.947"/>
</g>
<!-- NegativeOne()_(0, 1) -->
<g id="node6" class="node"><title>NegativeOne()_(0, 1)</title>
<ellipse fill="none" stroke="black" cx="117" cy="-162" rx="27" ry="18"/>
<text text-anchor="middle" x="117" y="-158.3" font-family="Times,serif" font-size="14.00">&#45;1</text>
</g>
<!-- Pow(Add(Integer(5), Symbol(y)), NegativeOne())_(0,)&#45;&gt;NegativeOne()_(0, 1) -->
<g id="edge4" class="edge"><title>Pow(Add(Integer(5), Symbol(y)), NegativeOne())_(0,)&#45;&gt;NegativeOne()_(0, 1)</title>
<path fill="none" stroke="black" d="M117,-215.697C117,-207.983 117,-198.712 117,-190.112"/>
<polygon fill="black" stroke="black" points="120.5,-190.104 117,-180.104 113.5,-190.104 120.5,-190.104"/>
</g>
<!-- Integer(5)_(0, 0, 0) -->
<g id="node4" class="node"><title>Integer(5)_(0, 0, 0)</title>
<ellipse fill="none" stroke="black" cx="27" cy="-90" rx="27" ry="18"/>
<text text-anchor="middle" x="27" y="-86.3" font-family="Times,serif" font-size="14.00">5</text>
</g>
<!-- Add(Integer(5), Symbol(y))_(0, 0)&#45;&gt;Integer(5)_(0, 0, 0) -->
<g id="edge5" class="edge"><title>Add(Integer(5), Symbol(y))_(0, 0)&#45;&gt;Integer(5)_(0, 0, 0)</title>
<path fill="none" stroke="black" d="M40.6427,-144.055C38.6086,-136.145 36.1388,-126.54 33.8626,-117.688"/>
<polygon fill="black" stroke="black" points="37.1974,-116.602 31.3172,-107.789 30.4179,-118.346 37.1974,-116.602"/>
</g>
<!-- Symbol(y)_(0, 0, 1) -->
<g id="node5" class="node"><title>Symbol(y)_(0, 0, 1)</title>
<ellipse fill="none" stroke="black" cx="99" cy="-90" rx="27" ry="18"/>
<text text-anchor="middle" x="99" y="-86.3" font-family="Times,serif" font-size="14.00">y</text>
</g>
<!-- Add(Integer(5), Symbol(y))_(0, 0)&#45;&gt;Symbol(y)_(0, 0, 1) -->
<g id="edge6" class="edge"><title>Add(Integer(5), Symbol(y))_(0, 0)&#45;&gt;Symbol(y)_(0, 0, 1)</title>
<path fill="none" stroke="black" d="M56.9844,-145.465C63.9755,-136.402 72.9362,-124.786 80.7851,-114.612"/>
<polygon fill="black" stroke="black" points="83.7123,-116.548 87.0492,-106.492 78.1698,-112.272 83.7123,-116.548"/>
</g>
<!-- Integer(3)_(1, 0) -->
<g id="node8" class="node"><title>Integer(3)_(1, 0)</title>
<ellipse fill="none" stroke="black" cx="189" cy="-162" rx="27" ry="18"/>
<text text-anchor="middle" x="189" y="-158.3" font-family="Times,serif" font-size="14.00">3</text>
</g>
<!-- Add(Integer(3), Mul(Integer(2), Pow(Symbol(x), Integer(2))))_(1,)&#45;&gt;Integer(3)_(1, 0) -->
<g id="edge7" class="edge"><title>Add(Integer(3), Mul(Integer(2), Pow(Symbol(x), Integer(2))))_(1,)&#45;&gt;Integer(3)_(1, 0)</title>
<path fill="none" stroke="black" d="M189,-215.697C189,-207.983 189,-198.712 189,-190.112"/>
<polygon fill="black" stroke="black" points="192.5,-190.104 189,-180.104 185.5,-190.104 192.5,-190.104"/>
</g>
<!-- Mul(Integer(2), Pow(Symbol(x), Integer(2)))_(1, 1) -->
<g id="node9" class="node"><title>Mul(Integer(2), Pow(Symbol(x), Integer(2)))_(1, 1)</title>
<ellipse fill="none" stroke="black" cx="261" cy="-162" rx="27" ry="18"/>
<text text-anchor="middle" x="261" y="-158.3" font-family="Times,serif" font-size="14.00">Mul</text>
</g>
<!-- Add(Integer(3), Mul(Integer(2), Pow(Symbol(x), Integer(2))))_(1,)&#45;&gt;Mul(Integer(2), Pow(Symbol(x), Integer(2)))_(1, 1) -->
<g id="edge8" class="edge"><title>Add(Integer(3), Mul(Integer(2), Pow(Symbol(x), Integer(2))))_(1,)&#45;&gt;Mul(Integer(2), Pow(Symbol(x), Integer(2)))_(1, 1)</title>
<path fill="none" stroke="black" d="M203.57,-218.834C213.75,-208.938 227.524,-195.546 239.031,-184.359"/>
<polygon fill="black" stroke="black" points="241.474,-186.865 246.204,-177.385 236.595,-181.846 241.474,-186.865"/>
</g>
<!-- Integer(2)_(1, 1, 0) -->
<g id="node10" class="node"><title>Integer(2)_(1, 1, 0)</title>
<ellipse fill="none" stroke="black" cx="207" cy="-90" rx="27" ry="18"/>
<text text-anchor="middle" x="207" y="-86.3" font-family="Times,serif" font-size="14.00">2</text>
</g>
<!-- Mul(Integer(2), Pow(Symbol(x), Integer(2)))_(1, 1)&#45;&gt;Integer(2)_(1, 1, 0) -->
<g id="edge9" class="edge"><title>Mul(Integer(2), Pow(Symbol(x), Integer(2)))_(1, 1)&#45;&gt;Integer(2)_(1, 1, 0)</title>
<path fill="none" stroke="black" d="M249.016,-145.465C242.024,-136.402 233.064,-124.786 225.215,-114.612"/>
<polygon fill="black" stroke="black" points="227.83,-112.272 218.951,-106.492 222.288,-116.548 227.83,-112.272"/>
</g>
<!-- Pow(Symbol(x), Integer(2))_(1, 1, 1) -->
<g id="node11" class="node"><title>Pow(Symbol(x), Integer(2))_(1, 1, 1)</title>
<ellipse fill="none" stroke="black" cx="279" cy="-90" rx="27.0966" ry="18"/>
<text text-anchor="middle" x="279" y="-86.3" font-family="Times,serif" font-size="14.00">Pow</text>
</g>
<!-- Mul(Integer(2), Pow(Symbol(x), Integer(2)))_(1, 1)&#45;&gt;Pow(Symbol(x), Integer(2))_(1, 1, 1) -->
<g id="edge10" class="edge"><title>Mul(Integer(2), Pow(Symbol(x), Integer(2)))_(1, 1)&#45;&gt;Pow(Symbol(x), Integer(2))_(1, 1, 1)</title>
<path fill="none" stroke="black" d="M265.357,-144.055C267.391,-136.145 269.861,-126.54 272.137,-117.688"/>
<polygon fill="black" stroke="black" points="275.582,-118.346 274.683,-107.789 268.803,-116.602 275.582,-118.346"/>
</g>
<!-- Symbol(x)_(1, 1, 1, 0) -->
<g id="node12" class="node"><title>Symbol(x)_(1, 1, 1, 0)</title>
<ellipse fill="none" stroke="black" cx="243" cy="-18" rx="27" ry="18"/>
<text text-anchor="middle" x="243" y="-14.3" font-family="Times,serif" font-size="14.00">x</text>
</g>
<!-- Pow(Symbol(x), Integer(2))_(1, 1, 1)&#45;&gt;Symbol(x)_(1, 1, 1, 0) -->
<g id="edge11" class="edge"><title>Pow(Symbol(x), Integer(2))_(1, 1, 1)&#45;&gt;Symbol(x)_(1, 1, 1, 0)</title>
<path fill="none" stroke="black" d="M270.65,-72.7646C266.288,-64.2831 260.853,-53.7144 255.959,-44.1974"/>
<polygon fill="black" stroke="black" points="258.99,-42.4395 251.304,-35.1473 252.765,-45.6409 258.99,-42.4395"/>
</g>
<!-- Integer(2)_(1, 1, 1, 1) -->
<g id="node13" class="node"><title>Integer(2)_(1, 1, 1, 1)</title>
<ellipse fill="none" stroke="black" cx="315" cy="-18" rx="27" ry="18"/>
<text text-anchor="middle" x="315" y="-14.3" font-family="Times,serif" font-size="14.00">2</text>
</g>
<!-- Pow(Symbol(x), Integer(2))_(1, 1, 1)&#45;&gt;Integer(2)_(1, 1, 1, 1) -->
<g id="edge12" class="edge"><title>Pow(Symbol(x), Integer(2))_(1, 1, 1)&#45;&gt;Integer(2)_(1, 1, 1, 1)</title>
<path fill="none" stroke="black" d="M287.35,-72.7646C291.712,-64.2831 297.147,-53.7144 302.041,-44.1974"/>
<polygon fill="black" stroke="black" points="305.235,-45.6409 306.696,-35.1473 299.01,-42.4395 305.235,-45.6409"/>
</g>
</g>
</svg>
