<?xml version="1.0" encoding="UTF-8" standalone="no"?>
<!DOCTYPE svg PUBLIC "-//W3C//DTD SVG 1.1//EN"
 "http://www.w3.org/Graphics/SVG/1.1/DTD/svg11.dtd">
<!-- Generated by graphviz version 2.36.0 (20140111.2315)
 -->
<!-- Title: %3 Pages: 1 -->
<svg width="178pt" height="332pt"
 viewBox="0.00 0.00 178.00 332.00" xmlns="http://www.w3.org/2000/svg" xmlns:xlink="http://www.w3.org/1999/xlink">
<g id="graph0" class="graph" transform="scale(1 1) rotate(0) translate(4 328)">
<title>%3</title>
<polygon fill="white" stroke="none" points="-4,4 -4,-328 174,-328 174,4 -4,4"/>
<!-- Integral(exp(Mul(NegativeOne(), Pow(Symbol(x), NegativeOne()))), Tuple(Symbol(x)))_() -->
<g id="node1" class="node"><title>Integral(exp(Mul(NegativeOne(), Pow(Symbol(x), NegativeOne()))), Tuple(Symbol(x)))_()</title>
<ellipse fill="none" stroke="black" cx="101" cy="-306" rx="38.0212" ry="18"/>
<text text-anchor="middle" x="101" y="-302.3" font-family="Times,serif" font-size="14.00">Integral</text>
</g>
<!-- exp(Mul(NegativeOne(), Pow(Symbol(x), NegativeOne())))_(0,) -->
<g id="node2" class="node"><title>exp(Mul(NegativeOne(), Pow(Symbol(x), NegativeOne())))_(0,)</title>
<ellipse fill="none" stroke="black" cx="63" cy="-234" rx="27" ry="18"/>
<text text-anchor="middle" x="63" y="-230.3" font-family="Times,serif" font-size="14.00">exp</text>
</g>
<!-- Integral(exp(Mul(NegativeOne(), Pow(Symbol(x), NegativeOne()))), Tuple(Symbol(x)))_()&#45;&gt;exp(Mul(NegativeOne(), Pow(Symbol(x), NegativeOne())))_(0,) -->
<g id="edge1" class="edge"><title>Integral(exp(Mul(NegativeOne(), Pow(Symbol(x), NegativeOne()))), Tuple(Symbol(x)))_()&#45;&gt;exp(Mul(NegativeOne(), Pow(Symbol(x), NegativeOne())))_(0,)</title>
<path fill="none" stroke="black" d="M91.9945,-288.411C87.4514,-280.042 81.8425,-269.71 76.7722,-260.37"/>
<polygon fill="black" stroke="black" points="79.7878,-258.589 71.9408,-251.47 73.6358,-261.928 79.7878,-258.589"/>
</g>
<!-- Tuple(Symbol(x))_(1,) -->
<g id="node8" class="node"><title>Tuple(Symbol(x))_(1,)</title>
<ellipse fill="none" stroke="blue" cx="139" cy="-234" rx="31.2965" ry="18"/>
<text text-anchor="middle" x="139" y="-230.3" font-family="Times,serif" font-size="14.00">Tuple</text>
</g>
<!-- Integral(exp(Mul(NegativeOne(), Pow(Symbol(x), NegativeOne()))), Tuple(Symbol(x)))_()&#45;&gt;Tuple(Symbol(x))_(1,) -->
<g id="edge2" class="edge"><title>Integral(exp(Mul(NegativeOne(), Pow(Symbol(x), NegativeOne()))), Tuple(Symbol(x)))_()&#45;&gt;Tuple(Symbol(x))_(1,)</title>
<path fill="none" stroke="black" d="M110.005,-288.411C114.549,-280.042 120.158,-269.71 125.228,-260.37"/>
<polygon fill="black" stroke="black" points="128.364,-261.928 130.059,-251.47 122.212,-258.589 128.364,-261.928"/>
</g>
<!-- Mul(NegativeOne(), Pow(Symbol(x), NegativeOne()))_(0, 0) -->
<g id="node3" class="node"><title>Mul(NegativeOne(), Pow(Symbol(x), NegativeOne()))_(0, 0)</title>
<ellipse fill="none" stroke="black" cx="63" cy="-162" rx="27" ry="18"/>
<text text-anchor="middle" x="63" y="-158.3" font-family="Times,serif" font-size="14.00">Mul</text>
</g>
<!-- exp(Mul(NegativeOne(), Pow(Symbol(x), NegativeOne())))_(0,)&#45;&gt;Mul(NegativeOne(), Pow(Symbol(x), NegativeOne()))_(0, 0) -->
<g id="edge3" class="edge"><title>exp(Mul(NegativeOne(), Pow(Symbol(x), NegativeOne())))_(0,)&#45;&gt;Mul(NegativeOne(), Pow(Symbol(x), NegativeOne()))_(0, 0)</title>
<path fill="none" stroke="black" d="M63,-215.697C63,-207.983 63,-198.712 63,-190.112"/>
<polygon fill="black" stroke="black" points="66.5001,-190.104 63,-180.104 59.5001,-190.104 66.5001,-190.104"/>
</g>
<!-- NegativeOne()_(0, 0, 0) -->
<g id="node4" class="node"><title>NegativeOne()_(0, 0, 0)</title>
<ellipse fill="none" stroke="black" cx="27" cy="-90" rx="27" ry="18"/>
<text text-anchor="middle" x="27" y="-86.3" font-family="Times,serif" font-size="14.00">&#45;1</text>
</g>
<!-- Mul(NegativeOne(), Pow(Symbol(x), NegativeOne()))_(0, 0)&#45;&gt;NegativeOne()_(0, 0, 0) -->
<g id="edge4" class="edge"><title>Mul(NegativeOne(), Pow(Symbol(x), NegativeOne()))_(0, 0)&#45;&gt;NegativeOne()_(0, 0, 0)</title>
<path fill="none" stroke="black" d="M54.6504,-144.765C50.2885,-136.283 44.8531,-125.714 39.9587,-116.197"/>
<polygon fill="black" stroke="black" points="42.9904,-114.439 35.3043,-107.147 36.7654,-117.641 42.9904,-114.439"/>
</g>
<!-- Pow(Symbol(x), NegativeOne())_(0, 0, 1) -->
<g id="node5" class="node"><title>Pow(Symbol(x), NegativeOne())_(0, 0, 1)</title>
<ellipse fill="none" stroke="black" cx="99" cy="-90" rx="27" ry="18"/>
<text text-anchor="middle" x="99" y="-86.3" font-family="Times,serif" font-size="14.00">Pow</text>
</g>
<!-- Mul(NegativeOne(), Pow(Symbol(x), NegativeOne()))_(0, 0)&#45;&gt;Pow(Symbol(x), NegativeOne())_(0, 0, 1) -->
<g id="edge5" class="edge"><title>Mul(NegativeOne(), Pow(Symbol(x), NegativeOne()))_(0, 0)&#45;&gt;Pow(Symbol(x), NegativeOne())_(0, 0, 1)</title>
<path fill="none" stroke="black" d="M71.3496,-144.765C75.7115,-136.283 81.1469,-125.714 86.0413,-116.197"/>
<polygon fill="black" stroke="black" points="89.2346,-117.641 90.6957,-107.147 83.0096,-114.439 89.2346,-117.641"/>
</g>
<!-- Symbol(x)_(0, 0, 1, 0) -->
<g id="node6" class="node"><title>Symbol(x)_(0, 0, 1, 0)</title>
<ellipse fill="none" stroke="black" cx="63" cy="-18" rx="27" ry="18"/>
<text text-anchor="middle" x="63" y="-14.3" font-family="Times,serif" font-size="14.00">x</text>
</g>
<!-- Pow(Symbol(x), NegativeOne())_(0, 0, 1)&#45;&gt;Symbol(x)_(0, 0, 1, 0) -->
<g id="edge6" class="edge"><title>Pow(Symbol(x), NegativeOne())_(0, 0, 1)&#45;&gt;Symbol(x)_(0, 0, 1, 0)</title>
<path fill="none" stroke="black" d="M90.6504,-72.7646C86.2885,-64.2831 80.8531,-53.7144 75.9587,-44.1974"/>
<polygon fill="black" stroke="black" points="78.9904,-42.4395 71.3043,-35.1473 72.7654,-45.6409 78.9904,-42.4395"/>
</g>
<!-- NegativeOne()_(0, 0, 1, 1) -->
<g id="node7" class="node"><title>NegativeOne()_(0, 0, 1, 1)</title>
<ellipse fill="none" stroke="black" cx="135" cy="-18" rx="27" ry="18"/>
<text text-anchor="middle" x="135" y="-14.3" font-family="Times,serif" font-size="14.00">&#45;1</text>
</g>
<!-- Pow(Symbol(x), NegativeOne())_(0, 0, 1)&#45;&gt;NegativeOne()_(0, 0, 1, 1) -->
<g id="edge7" class="edge"><title>Pow(Symbol(x), NegativeOne())_(0, 0, 1)&#45;&gt;NegativeOne()_(0, 0, 1, 1)</title>
<path fill="none" stroke="black" d="M107.35,-72.7646C111.712,-64.2831 117.147,-53.7144 122.041,-44.1974"/>
<polygon fill="black" stroke="black" points="125.235,-45.6409 126.696,-35.1473 119.01,-42.4395 125.235,-45.6409"/>
</g>
<!-- Symbol(x)_(1, 0) -->
<g id="node9" class="node"><title>Symbol(x)_(1, 0)</title>
<ellipse fill="none" stroke="black" cx="139" cy="-162" rx="27" ry="18"/>
<text text-anchor="middle" x="139" y="-158.3" font-family="Times,serif" font-size="14.00">x</text>
</g>
<!-- Tuple(Symbol(x))_(1,)&#45;&gt;Symbol(x)_(1, 0) -->
<g id="edge8" class="edge"><title>Tuple(Symbol(x))_(1,)&#45;&gt;Symbol(x)_(1, 0)</title>
<path fill="none" stroke="black" d="M139,-215.697C139,-207.983 139,-198.712 139,-190.112"/>
<polygon fill="black" stroke="black" points="142.5,-190.104 139,-180.104 135.5,-190.104 142.5,-190.104"/>
</g>
</g>
</svg>
