<?xml version="1.0" encoding="UTF-8" standalone="no"?>
<!DOCTYPE svg PUBLIC "-//W3C//DTD SVG 1.1//EN"
 "http://www.w3.org/Graphics/SVG/1.1/DTD/svg11.dtd">
<!-- Generated by graphviz version 2.38.0 (20140413.2041)
 -->
<!-- Title: %3 Pages: 1 -->
<svg width="386pt" height="476pt"
 viewBox="0.00 0.00 386.00 476.00" xmlns="http://www.w3.org/2000/svg" xmlns:xlink="http://www.w3.org/1999/xlink">
<g id="graph0" class="graph" transform="scale(1 1) rotate(0) translate(4 472)">
<title>%3</title>
<polygon fill="white" stroke="none" points="-4,4 -4,-472 382,-472 382,4 -4,4"/>
<!-- Integral(Mul(Pow(Add(Integer(4), Mul(NegativeOne(), Pow(Symbol(y), Integer(2)))), NegativeOne()), Add(One(), Symbol(x), Symbol(y))), Tuple(Symbol(x)))_() -->
<g id="node1" class="node"><title>Integral(Mul(Pow(Add(Integer(4), Mul(NegativeOne(), Pow(Symbol(y), Integer(2)))), NegativeOne()), Add(One(), Symbol(x), Symbol(y))), Tuple(Symbol(x)))_()</title>
<ellipse fill="none" stroke="black" cx="278" cy="-450" rx="40.0939" ry="18"/>
<text text-anchor="middle" x="278" y="-446.3" font-family="Times,serif" font-size="14.00">Integral</text>
</g>
<!-- Mul(Pow(Add(Integer(4), Mul(NegativeOne(), Pow(Symbol(y), Integer(2)))), NegativeOne()), Add(One(), Symbol(x), Symbol(y)))_(0,) -->
<g id="node2" class="node"><title>Mul(Pow(Add(Integer(4), Mul(NegativeOne(), Pow(Symbol(y), Integer(2)))), NegativeOne()), Add(One(), Symbol(x), Symbol(y)))_(0,)</title>
<ellipse fill="none" stroke="black" cx="240" cy="-378" rx="27" ry="18"/>
<text text-anchor="middle" x="240" y="-374.3" font-family="Times,serif" font-size="14.00">Mul</text>
</g>
<!-- Integral(Mul(Pow(Add(Integer(4), Mul(NegativeOne(), Pow(Symbol(y), Integer(2)))), NegativeOne()), Add(One(), Symbol(x), Symbol(y))), Tuple(Symbol(x)))_()&#45;&gt;Mul(Pow(Add(Integer(4), Mul(NegativeOne(), Pow(Symbol(y), Integer(2)))), NegativeOne()), Add(One(), Symbol(x), Symbol(y)))_(0,) -->
<g id="edge1" class="edge"><title>Integral(Mul(Pow(Add(Integer(4), Mul(NegativeOne(), Pow(Symbol(y), Integer(2)))), NegativeOne()), Add(One(), Symbol(x), Symbol(y))), Tuple(Symbol(x)))_()&#45;&gt;Mul(Pow(Add(Integer(4), Mul(NegativeOne(), Pow(Symbol(y), Integer(2)))), NegativeOne()), Add(One(), Symbol(x), Symbol(y)))_(0,)</title>
<path fill="none" stroke="black" d="M268.995,-432.411C264.451,-424.042 258.842,-413.71 253.772,-404.37"/>
<polygon fill="black" stroke="black" points="256.788,-402.589 248.941,-395.47 250.636,-405.928 256.788,-402.589"/>
</g>
<!-- Tuple(Symbol(x))_(1,) -->
<g id="node16" class="node"><title>Tuple(Symbol(x))_(1,)</title>
<ellipse fill="none" stroke="blue" cx="317" cy="-378" rx="32.4942" ry="18"/>
<text text-anchor="middle" x="317" y="-374.3" font-family="Times,serif" font-size="14.00">Tuple</text>
</g>
<!-- Integral(Mul(Pow(Add(Integer(4), Mul(NegativeOne(), Pow(Symbol(y), Integer(2)))), NegativeOne()), Add(One(), Symbol(x), Symbol(y))), Tuple(Symbol(x)))_()&#45;&gt;Tuple(Symbol(x))_(1,) -->
<g id="edge2" class="edge"><title>Integral(Mul(Pow(Add(Integer(4), Mul(NegativeOne(), Pow(Symbol(y), Integer(2)))), NegativeOne()), Add(One(), Symbol(x), Symbol(y))), Tuple(Symbol(x)))_()&#45;&gt;Tuple(Symbol(x))_(1,)</title>
<path fill="none" stroke="black" d="M287.242,-432.411C291.905,-424.042 297.662,-413.71 302.865,-404.37"/>
<polygon fill="black" stroke="black" points="306.014,-405.909 307.824,-395.47 299.899,-402.502 306.014,-405.909"/>
</g>
<!-- Pow(Add(Integer(4), Mul(NegativeOne(), Pow(Symbol(y), Integer(2)))), NegativeOne())_(0, 0) -->
<g id="node3" class="node"><title>Pow(Add(Integer(4), Mul(NegativeOne(), Pow(Symbol(y), Integer(2)))), NegativeOne())_(0, 0)</title>
<ellipse fill="none" stroke="black" cx="135" cy="-306" rx="27.0966" ry="18"/>
<text text-anchor="middle" x="135" y="-302.3" font-family="Times,serif" font-size="14.00">Pow</text>
</g>
<!-- Mul(Pow(Add(Integer(4), Mul(NegativeOne(), Pow(Symbol(y), Integer(2)))), NegativeOne()), Add(One(), Symbol(x), Symbol(y)))_(0,)&#45;&gt;Pow(Add(Integer(4), Mul(NegativeOne(), Pow(Symbol(y), Integer(2)))), NegativeOne())_(0, 0) -->
<g id="edge3" class="edge"><title>Mul(Pow(Add(Integer(4), Mul(NegativeOne(), Pow(Symbol(y), Integer(2)))), NegativeOne()), Add(One(), Symbol(x), Symbol(y)))_(0,)&#45;&gt;Pow(Add(Integer(4), Mul(NegativeOne(), Pow(Symbol(y), Integer(2)))), NegativeOne())_(0, 0)</title>
<path fill="none" stroke="black" d="M221.228,-364.485C204.729,-353.486 180.523,-337.349 161.954,-324.97"/>
<polygon fill="black" stroke="black" points="163.871,-322.041 153.609,-319.406 159.988,-327.865 163.871,-322.041"/>
</g>
<!-- Add(One(), Symbol(x), Symbol(y))_(0, 1) -->
<g id="node12" class="node"><title>Add(One(), Symbol(x), Symbol(y))_(0, 1)</title>
<ellipse fill="none" stroke="black" cx="243" cy="-306" rx="27" ry="18"/>
<text text-anchor="middle" x="243" y="-302.3" font-family="Times,serif" font-size="14.00">Add</text>
</g>
<!-- Mul(Pow(Add(Integer(4), Mul(NegativeOne(), Pow(Symbol(y), Integer(2)))), NegativeOne()), Add(One(), Symbol(x), Symbol(y)))_(0,)&#45;&gt;Add(One(), Symbol(x), Symbol(y))_(0, 1) -->
<g id="edge4" class="edge"><title>Mul(Pow(Add(Integer(4), Mul(NegativeOne(), Pow(Symbol(y), Integer(2)))), NegativeOne()), Add(One(), Symbol(x), Symbol(y)))_(0,)&#45;&gt;Add(One(), Symbol(x), Symbol(y))_(0, 1)</title>
<path fill="none" stroke="black" d="M240.742,-359.697C241.072,-351.983 241.469,-342.712 241.838,-334.112"/>
<polygon fill="black" stroke="black" points="245.335,-334.245 242.267,-324.104 238.342,-333.945 245.335,-334.245"/>
</g>
<!-- Add(Integer(4), Mul(NegativeOne(), Pow(Symbol(y), Integer(2))))_(0, 0, 0) -->
<g id="node4" class="node"><title>Add(Integer(4), Mul(NegativeOne(), Pow(Symbol(y), Integer(2))))_(0, 0, 0)</title>
<ellipse fill="none" stroke="black" cx="63" cy="-234" rx="27" ry="18"/>
<text text-anchor="middle" x="63" y="-230.3" font-family="Times,serif" font-size="14.00">Add</text>
</g>
<!-- Pow(Add(Integer(4), Mul(NegativeOne(), Pow(Symbol(y), Integer(2)))), NegativeOne())_(0, 0)&#45;&gt;Add(Integer(4), Mul(NegativeOne(), Pow(Symbol(y), Integer(2))))_(0, 0, 0) -->
<g id="edge5" class="edge"><title>Pow(Add(Integer(4), Mul(NegativeOne(), Pow(Symbol(y), Integer(2)))), NegativeOne())_(0, 0)&#45;&gt;Add(Integer(4), Mul(NegativeOne(), Pow(Symbol(y), Integer(2))))_(0, 0, 0)</title>
<path fill="none" stroke="black" d="M120.082,-290.496C110.042,-280.735 96.6237,-267.69 85.3199,-256.7"/>
<polygon fill="black" stroke="black" points="87.5091,-253.947 77.8993,-249.485 82.6295,-258.966 87.5091,-253.947"/>
</g>
<!-- NegativeOne()_(0, 0, 1) -->
<g id="node11" class="node"><title>NegativeOne()_(0, 0, 1)</title>
<ellipse fill="none" stroke="black" cx="135" cy="-234" rx="27" ry="18"/>
<text text-anchor="middle" x="135" y="-230.3" font-family="Times,serif" font-size="14.00">&#45;1</text>
</g>
<!-- Pow(Add(Integer(4), Mul(NegativeOne(), Pow(Symbol(y), Integer(2)))), NegativeOne())_(0, 0)&#45;&gt;NegativeOne()_(0, 0, 1) -->
<g id="edge6" class="edge"><title>Pow(Add(Integer(4), Mul(NegativeOne(), Pow(Symbol(y), Integer(2)))), NegativeOne())_(0, 0)&#45;&gt;NegativeOne()_(0, 0, 1)</title>
<path fill="none" stroke="black" d="M135,-287.697C135,-279.983 135,-270.712 135,-262.112"/>
<polygon fill="black" stroke="black" points="138.5,-262.104 135,-252.104 131.5,-262.104 138.5,-262.104"/>
</g>
<!-- Integer(4)_(0, 0, 0, 0) -->
<g id="node5" class="node"><title>Integer(4)_(0, 0, 0, 0)</title>
<ellipse fill="none" stroke="black" cx="27" cy="-162" rx="27" ry="18"/>
<text text-anchor="middle" x="27" y="-158.3" font-family="Times,serif" font-size="14.00">4</text>
</g>
<!-- Add(Integer(4), Mul(NegativeOne(), Pow(Symbol(y), Integer(2))))_(0, 0, 0)&#45;&gt;Integer(4)_(0, 0, 0, 0) -->
<g id="edge7" class="edge"><title>Add(Integer(4), Mul(NegativeOne(), Pow(Symbol(y), Integer(2))))_(0, 0, 0)&#45;&gt;Integer(4)_(0, 0, 0, 0)</title>
<path fill="none" stroke="black" d="M54.6504,-216.765C50.2885,-208.283 44.8531,-197.714 39.9587,-188.197"/>
<polygon fill="black" stroke="black" points="42.9904,-186.439 35.3043,-179.147 36.7654,-189.641 42.9904,-186.439"/>
</g>
<!-- Mul(NegativeOne(), Pow(Symbol(y), Integer(2)))_(0, 0, 0, 1) -->
<g id="node6" class="node"><title>Mul(NegativeOne(), Pow(Symbol(y), Integer(2)))_(0, 0, 0, 1)</title>
<ellipse fill="none" stroke="black" cx="99" cy="-162" rx="27" ry="18"/>
<text text-anchor="middle" x="99" y="-158.3" font-family="Times,serif" font-size="14.00">Mul</text>
</g>
<!-- Add(Integer(4), Mul(NegativeOne(), Pow(Symbol(y), Integer(2))))_(0, 0, 0)&#45;&gt;Mul(NegativeOne(), Pow(Symbol(y), Integer(2)))_(0, 0, 0, 1) -->
<g id="edge8" class="edge"><title>Add(Integer(4), Mul(NegativeOne(), Pow(Symbol(y), Integer(2))))_(0, 0, 0)&#45;&gt;Mul(NegativeOne(), Pow(Symbol(y), Integer(2)))_(0, 0, 0, 1)</title>
<path fill="none" stroke="black" d="M71.3496,-216.765C75.7115,-208.283 81.1469,-197.714 86.0413,-188.197"/>
<polygon fill="black" stroke="black" points="89.2346,-189.641 90.6957,-179.147 83.0096,-186.439 89.2346,-189.641"/>
</g>
<!-- NegativeOne()_(0, 0, 0, 1, 0) -->
<g id="node7" class="node"><title>NegativeOne()_(0, 0, 0, 1, 0)</title>
<ellipse fill="none" stroke="black" cx="63" cy="-90" rx="27" ry="18"/>
<text text-anchor="middle" x="63" y="-86.3" font-family="Times,serif" font-size="14.00">&#45;1</text>
</g>
<!-- Mul(NegativeOne(), Pow(Symbol(y), Integer(2)))_(0, 0, 0, 1)&#45;&gt;NegativeOne()_(0, 0, 0, 1, 0) -->
<g id="edge9" class="edge"><title>Mul(NegativeOne(), Pow(Symbol(y), Integer(2)))_(0, 0, 0, 1)&#45;&gt;NegativeOne()_(0, 0, 0, 1, 0)</title>
<path fill="none" stroke="black" d="M90.6504,-144.765C86.2885,-136.283 80.8531,-125.714 75.9587,-116.197"/>
<polygon fill="black" stroke="black" points="78.9904,-114.439 71.3043,-107.147 72.7654,-117.641 78.9904,-114.439"/>
</g>
<!-- Pow(Symbol(y), Integer(2))_(0, 0, 0, 1, 1) -->
<g id="node8" class="node"><title>Pow(Symbol(y), Integer(2))_(0, 0, 0, 1, 1)</title>
<ellipse fill="none" stroke="black" cx="135" cy="-90" rx="27.0966" ry="18"/>
<text text-anchor="middle" x="135" y="-86.3" font-family="Times,serif" font-size="14.00">Pow</text>
</g>
<!-- Mul(NegativeOne(), Pow(Symbol(y), Integer(2)))_(0, 0, 0, 1)&#45;&gt;Pow(Symbol(y), Integer(2))_(0, 0, 0, 1, 1) -->
<g id="edge10" class="edge"><title>Mul(NegativeOne(), Pow(Symbol(y), Integer(2)))_(0, 0, 0, 1)&#45;&gt;Pow(Symbol(y), Integer(2))_(0, 0, 0, 1, 1)</title>
<path fill="none" stroke="black" d="M107.35,-144.765C111.712,-136.283 117.147,-125.714 122.041,-116.197"/>
<polygon fill="black" stroke="black" points="125.235,-117.641 126.696,-107.147 119.01,-114.439 125.235,-117.641"/>
</g>
<!-- Symbol(y)_(0, 0, 0, 1, 1, 0) -->
<g id="node9" class="node"><title>Symbol(y)_(0, 0, 0, 1, 1, 0)</title>
<ellipse fill="none" stroke="black" cx="99" cy="-18" rx="27" ry="18"/>
<text text-anchor="middle" x="99" y="-14.3" font-family="Times,serif" font-size="14.00">y</text>
</g>
<!-- Pow(Symbol(y), Integer(2))_(0, 0, 0, 1, 1)&#45;&gt;Symbol(y)_(0, 0, 0, 1, 1, 0) -->
<g id="edge11" class="edge"><title>Pow(Symbol(y), Integer(2))_(0, 0, 0, 1, 1)&#45;&gt;Symbol(y)_(0, 0, 0, 1, 1, 0)</title>
<path fill="none" stroke="black" d="M126.65,-72.7646C122.288,-64.2831 116.853,-53.7144 111.959,-44.1974"/>
<polygon fill="black" stroke="black" points="114.99,-42.4395 107.304,-35.1473 108.765,-45.6409 114.99,-42.4395"/>
</g>
<!-- Integer(2)_(0, 0, 0, 1, 1, 1) -->
<g id="node10" class="node"><title>Integer(2)_(0, 0, 0, 1, 1, 1)</title>
<ellipse fill="none" stroke="black" cx="171" cy="-18" rx="27" ry="18"/>
<text text-anchor="middle" x="171" y="-14.3" font-family="Times,serif" font-size="14.00">2</text>
</g>
<!-- Pow(Symbol(y), Integer(2))_(0, 0, 0, 1, 1)&#45;&gt;Integer(2)_(0, 0, 0, 1, 1, 1) -->
<g id="edge12" class="edge"><title>Pow(Symbol(y), Integer(2))_(0, 0, 0, 1, 1)&#45;&gt;Integer(2)_(0, 0, 0, 1, 1, 1)</title>
<path fill="none" stroke="black" d="M143.35,-72.7646C147.712,-64.2831 153.147,-53.7144 158.041,-44.1974"/>
<polygon fill="black" stroke="black" points="161.235,-45.6409 162.696,-35.1473 155.01,-42.4395 161.235,-45.6409"/>
</g>
<!-- One()_(0, 1, 0) -->
<g id="node13" class="node"><title>One()_(0, 1, 0)</title>
<ellipse fill="none" stroke="black" cx="207" cy="-234" rx="27" ry="18"/>
<text text-anchor="middle" x="207" y="-230.3" font-family="Times,serif" font-size="14.00">1</text>
</g>
<!-- Add(One(), Symbol(x), Symbol(y))_(0, 1)&#45;&gt;One()_(0, 1, 0) -->
<g id="edge13" class="edge"><title>Add(One(), Symbol(x), Symbol(y))_(0, 1)&#45;&gt;One()_(0, 1, 0)</title>
<path fill="none" stroke="black" d="M234.65,-288.765C230.288,-280.283 224.853,-269.714 219.959,-260.197"/>
<polygon fill="black" stroke="black" points="222.99,-258.439 215.304,-251.147 216.765,-261.641 222.99,-258.439"/>
</g>
<!-- Symbol(x)_(0, 1, 1) -->
<g id="node14" class="node"><title>Symbol(x)_(0, 1, 1)</title>
<ellipse fill="none" stroke="black" cx="279" cy="-234" rx="27" ry="18"/>
<text text-anchor="middle" x="279" y="-230.3" font-family="Times,serif" font-size="14.00">x</text>
</g>
<!-- Add(One(), Symbol(x), Symbol(y))_(0, 1)&#45;&gt;Symbol(x)_(0, 1, 1) -->
<g id="edge14" class="edge"><title>Add(One(), Symbol(x), Symbol(y))_(0, 1)&#45;&gt;Symbol(x)_(0, 1, 1)</title>
<path fill="none" stroke="black" d="M251.35,-288.765C255.712,-280.283 261.147,-269.714 266.041,-260.197"/>
<polygon fill="black" stroke="black" points="269.235,-261.641 270.696,-251.147 263.01,-258.439 269.235,-261.641"/>
</g>
<!-- Symbol(y)_(0, 1, 2) -->
<g id="node15" class="node"><title>Symbol(y)_(0, 1, 2)</title>
<ellipse fill="none" stroke="black" cx="351" cy="-234" rx="27" ry="18"/>
<text text-anchor="middle" x="351" y="-230.3" font-family="Times,serif" font-size="14.00">y</text>
</g>
<!-- Add(One(), Symbol(x), Symbol(y))_(0, 1)&#45;&gt;Symbol(y)_(0, 1, 2) -->
<g id="edge15" class="edge"><title>Add(One(), Symbol(x), Symbol(y))_(0, 1)&#45;&gt;Symbol(y)_(0, 1, 2)</title>
<path fill="none" stroke="black" d="M261.812,-292.807C279.002,-281.665 304.618,-265.062 323.993,-252.504"/>
<polygon fill="black" stroke="black" points="325.916,-255.429 332.403,-247.053 322.108,-249.555 325.916,-255.429"/>
</g>
<!-- Symbol(x)_(1, 0) -->
<g id="node17" class="node"><title>Symbol(x)_(1, 0)</title>
<ellipse fill="none" stroke="black" cx="317" cy="-306" rx="27" ry="18"/>
<text text-anchor="middle" x="317" y="-302.3" font-family="Times,serif" font-size="14.00">x</text>
</g>
<!-- Tuple(Symbol(x))_(1,)&#45;&gt;Symbol(x)_(1, 0) -->
<g id="edge16" class="edge"><title>Tuple(Symbol(x))_(1,)&#45;&gt;Symbol(x)_(1, 0)</title>
<path fill="none" stroke="black" d="M317,-359.697C317,-351.983 317,-342.712 317,-334.112"/>
<polygon fill="black" stroke="black" points="320.5,-334.104 317,-324.104 313.5,-334.104 320.5,-334.104"/>
</g>
</g>
</svg>
