<?xml version="1.0" encoding="UTF-8" standalone="no"?>
<!DOCTYPE svg PUBLIC "-//W3C//DTD SVG 1.1//EN"
 "http://www.w3.org/Graphics/SVG/1.1/DTD/svg11.dtd">
<!-- Generated by graphviz version 2.26.3 (20100126.1600)
 -->
<!-- Title: _anonymous_0 Pages: 1 -->
<svg width="194pt" height="342pt"
 viewBox="0.00 0.00 194.00 342.00" xmlns="http://www.w3.org/2000/svg" xmlns:xlink="http://www.w3.org/1999/xlink">
<g id="graph1" class="graph" transform="scale(1 1) rotate(0) translate(4 338)">
<title>_anonymous_0</title>
<polygon fill="white" stroke="white" points="-4,5 -4,-338 191,-338 191,5 -4,5"/>
<!-- Integral(exp(Mul(NegativeOne(), Pow(Symbol(x), NegativeOne()))), Tuple(Symbol(x)))_() -->
<g id="node1" class="node"><title>Integral(exp(Mul(NegativeOne(), Pow(Symbol(x), NegativeOne()))), Tuple(Symbol(x)))_()</title>
<ellipse fill="none" stroke="black" cx="107" cy="-315" rx="50.2046" ry="18.3848"/>
<text text-anchor="middle" x="107" y="-311.4" font-family="Times Roman,serif" font-size="14.00">Integral</text>
</g>
<!-- exp(Mul(NegativeOne(), Pow(Symbol(x), NegativeOne())))_(0,) -->
<g id="node2" class="node"><title>exp(Mul(NegativeOne(), Pow(Symbol(x), NegativeOne())))_(0,)</title>
<ellipse fill="none" stroke="black" cx="65" cy="-241" rx="28.9914" ry="18.3848"/>
<text text-anchor="middle" x="65" y="-237.4" font-family="Times Roman,serif" font-size="14.00">exp</text>
</g>
<!-- Integral(exp(Mul(NegativeOne(), Pow(Symbol(x), NegativeOne()))), Tuple(Symbol(x)))_()&#45;&gt;exp(Mul(NegativeOne(), Pow(Symbol(x), NegativeOne())))_(0,) -->
<g id="edge2" class="edge"><title>Integral(exp(Mul(NegativeOne(), Pow(Symbol(x), NegativeOne()))), Tuple(Symbol(x)))_()&#45;&gt;exp(Mul(NegativeOne(), Pow(Symbol(x), NegativeOne())))_(0,)</title>
<path fill="none" stroke="black" d="M96.618,-296.708C91.6108,-287.886 85.5108,-277.138 80.0093,-267.445"/>
<polygon fill="black" stroke="black" points="82.9534,-265.541 74.9734,-258.572 76.8656,-268.997 82.9534,-265.541"/>
</g>
<!-- Tuple(Symbol(x))_(1,) -->
<g id="node8" class="node"><title>Tuple(Symbol(x))_(1,)</title>
<ellipse fill="none" stroke="blue" cx="149" cy="-241" rx="36.977" ry="18.3848"/>
<text text-anchor="middle" x="149" y="-237.4" font-family="Times Roman,serif" font-size="14.00">Tuple</text>
</g>
<!-- Integral(exp(Mul(NegativeOne(), Pow(Symbol(x), NegativeOne()))), Tuple(Symbol(x)))_()&#45;&gt;Tuple(Symbol(x))_(1,) -->
<g id="edge4" class="edge"><title>Integral(exp(Mul(NegativeOne(), Pow(Symbol(x), NegativeOne()))), Tuple(Symbol(x)))_()&#45;&gt;Tuple(Symbol(x))_(1,)</title>
<path fill="none" stroke="black" d="M117.382,-296.708C122.352,-287.951 128.4,-277.296 133.869,-267.659"/>
<polygon fill="black" stroke="black" points="136.99,-269.251 138.882,-258.826 130.902,-265.796 136.99,-269.251"/>
</g>
<!-- Mul(NegativeOne(), Pow(Symbol(x), NegativeOne()))_(0, 0) -->
<g id="node3" class="node"><title>Mul(NegativeOne(), Pow(Symbol(x), NegativeOne()))_(0, 0)</title>
<ellipse fill="none" stroke="black" cx="65" cy="-167" rx="28.9914" ry="18.3848"/>
<text text-anchor="middle" x="65" y="-163.4" font-family="Times Roman,serif" font-size="14.00">Mul</text>
</g>
<!-- exp(Mul(NegativeOne(), Pow(Symbol(x), NegativeOne())))_(0,)&#45;&gt;Mul(NegativeOne(), Pow(Symbol(x), NegativeOne()))_(0, 0) -->
<g id="edge6" class="edge"><title>exp(Mul(NegativeOne(), Pow(Symbol(x), NegativeOne())))_(0,)&#45;&gt;Mul(NegativeOne(), Pow(Symbol(x), NegativeOne()))_(0, 0)</title>
<path fill="none" stroke="black" d="M65,-222.327C65,-214.264 65,-204.648 65,-195.711"/>
<polygon fill="black" stroke="black" points="68.5001,-195.667 65,-185.667 61.5001,-195.667 68.5001,-195.667"/>
</g>
<!-- NegativeOne()_(0, 0, 0) -->
<g id="node4" class="node"><title>NegativeOne()_(0, 0, 0)</title>
<ellipse fill="none" stroke="black" cx="27" cy="-93" rx="27" ry="18.3848"/>
<text text-anchor="middle" x="27" y="-89.4" font-family="Times Roman,serif" font-size="14.00">&#45;1</text>
</g>
<!-- Mul(NegativeOne(), Pow(Symbol(x), NegativeOne()))_(0, 0)&#45;&gt;NegativeOne()_(0, 0, 0) -->
<g id="edge8" class="edge"><title>Mul(NegativeOne(), Pow(Symbol(x), NegativeOne()))_(0, 0)&#45;&gt;NegativeOne()_(0, 0, 0)</title>
<path fill="none" stroke="black" d="M55.8013,-149.087C51.2404,-140.205 45.6419,-129.303 40.5975,-119.479"/>
<polygon fill="black" stroke="black" points="43.6645,-117.79 35.9829,-110.493 37.4375,-120.988 43.6645,-117.79"/>
</g>
<!-- Pow(Symbol(x), NegativeOne())_(0, 0, 1) -->
<g id="node5" class="node"><title>Pow(Symbol(x), NegativeOne())_(0, 0, 1)</title>
<ellipse fill="none" stroke="black" cx="104" cy="-93" rx="32.0265" ry="18.3848"/>
<text text-anchor="middle" x="104" y="-89.4" font-family="Times Roman,serif" font-size="14.00">Pow</text>
</g>
<!-- Mul(NegativeOne(), Pow(Symbol(x), NegativeOne()))_(0, 0)&#45;&gt;Pow(Symbol(x), NegativeOne())_(0, 0, 1) -->
<g id="edge10" class="edge"><title>Mul(NegativeOne(), Pow(Symbol(x), NegativeOne()))_(0, 0)&#45;&gt;Pow(Symbol(x), NegativeOne())_(0, 0, 1)</title>
<path fill="none" stroke="black" d="M74.2425,-149.463C78.8854,-140.653 84.613,-129.786 89.7994,-119.945"/>
<polygon fill="black" stroke="black" points="92.9868,-121.404 94.553,-110.925 86.7942,-118.14 92.9868,-121.404"/>
</g>
<!-- Symbol(x)_(0, 0, 1, 0) -->
<g id="node6" class="node"><title>Symbol(x)_(0, 0, 1, 0)</title>
<ellipse fill="none" stroke="black" cx="68" cy="-19" rx="27" ry="18.3848"/>
<text text-anchor="middle" x="68" y="-15.4" font-family="Times Roman,serif" font-size="14.00">x</text>
</g>
<!-- Pow(Symbol(x), NegativeOne())_(0, 0, 1)&#45;&gt;Symbol(x)_(0, 0, 1, 0) -->
<g id="edge12" class="edge"><title>Pow(Symbol(x), NegativeOne())_(0, 0, 1)&#45;&gt;Symbol(x)_(0, 0, 1, 0)</title>
<path fill="none" stroke="black" d="M95.2854,-75.0867C91.0403,-66.3607 85.8464,-55.6843 81.1337,-45.9971"/>
<polygon fill="black" stroke="black" points="84.1564,-44.2096 76.6343,-36.7484 77.8617,-47.2719 84.1564,-44.2096"/>
</g>
<!-- NegativeOne()_(0, 0, 1, 1) -->
<g id="node7" class="node"><title>NegativeOne()_(0, 0, 1, 1)</title>
<ellipse fill="none" stroke="black" cx="140" cy="-19" rx="27" ry="18.3848"/>
<text text-anchor="middle" x="140" y="-15.4" font-family="Times Roman,serif" font-size="14.00">&#45;1</text>
</g>
<!-- Pow(Symbol(x), NegativeOne())_(0, 0, 1)&#45;&gt;NegativeOne()_(0, 0, 1, 1) -->
<g id="edge14" class="edge"><title>Pow(Symbol(x), NegativeOne())_(0, 0, 1)&#45;&gt;NegativeOne()_(0, 0, 1, 1)</title>
<path fill="none" stroke="black" d="M112.715,-75.0867C116.96,-66.3607 122.154,-55.6843 126.866,-45.9971"/>
<polygon fill="black" stroke="black" points="130.138,-47.2719 131.366,-36.7484 123.844,-44.2096 130.138,-47.2719"/>
</g>
<!-- Symbol(x)_(1, 0) -->
<g id="node9" class="node"><title>Symbol(x)_(1, 0)</title>
<ellipse fill="none" stroke="black" cx="149" cy="-167" rx="27" ry="18.3848"/>
<text text-anchor="middle" x="149" y="-163.4" font-family="Times Roman,serif" font-size="14.00">x</text>
</g>
<!-- Tuple(Symbol(x))_(1,)&#45;&gt;Symbol(x)_(1, 0) -->
<g id="edge16" class="edge"><title>Tuple(Symbol(x))_(1,)&#45;&gt;Symbol(x)_(1, 0)</title>
<path fill="none" stroke="black" d="M149,-222.327C149,-214.264 149,-204.648 149,-195.711"/>
<polygon fill="black" stroke="black" points="152.5,-195.667 149,-185.667 145.5,-195.667 152.5,-195.667"/>
</g>
</g>
</svg>
