<?xml version="1.0" encoding="UTF-8" standalone="no"?>
<!DOCTYPE svg PUBLIC "-//W3C//DTD SVG 1.1//EN"
 "http://www.w3.org/Graphics/SVG/1.1/DTD/svg11.dtd">
<!-- Generated by graphviz version 2.26.3 (20100126.1600)
 -->
<!-- Title: _anonymous_0 Pages: 1 -->
<svg width="357pt" height="342pt"
 viewBox="0.00 0.00 357.00 342.00" xmlns="http://www.w3.org/2000/svg" xmlns:xlink="http://www.w3.org/1999/xlink">
<g id="graph1" class="graph" transform="scale(1 1) rotate(0) translate(4 338)">
<title>_anonymous_0</title>
<polygon fill="white" stroke="white" points="-4,5 -4,-338 354,-338 354,5 -4,5"/>
<!-- Mul(Add(Integer(3), Mul(Integer(2), Pow(Symbol(x), Integer(2)))), Pow(Add(Integer(5), Symbol(y)), NegativeOne()))_() -->
<g id="node1" class="node"><title>Mul(Add(Integer(3), Mul(Integer(2), Pow(Symbol(x), Integer(2)))), Pow(Add(Integer(5), Symbol(y)), NegativeOne()))_()</title>
<ellipse fill="none" stroke="black" cx="159" cy="-315" rx="28.9914" ry="18.3848"/>
<text text-anchor="middle" x="159" y="-311.4" font-family="Times Roman,serif" font-size="14.00">Mul</text>
</g>
<!-- Pow(Add(Integer(5), Symbol(y)), NegativeOne())_(0,) -->
<g id="node2" class="node"><title>Pow(Add(Integer(5), Symbol(y)), NegativeOne())_(0,)</title>
<ellipse fill="none" stroke="black" cx="119" cy="-241" rx="32.0265" ry="18.3848"/>
<text text-anchor="middle" x="119" y="-237.4" font-family="Times Roman,serif" font-size="14.00">Pow</text>
</g>
<!-- Mul(Add(Integer(3), Mul(Integer(2), Pow(Symbol(x), Integer(2)))), Pow(Add(Integer(5), Symbol(y)), NegativeOne()))_()&#45;&gt;Pow(Add(Integer(5), Symbol(y)), NegativeOne())_(0,) -->
<g id="edge2" class="edge"><title>Mul(Add(Integer(3), Mul(Integer(2), Pow(Symbol(x), Integer(2)))), Pow(Add(Integer(5), Symbol(y)), NegativeOne()))_()&#45;&gt;Pow(Add(Integer(5), Symbol(y)), NegativeOne())_(0,)</title>
<path fill="none" stroke="black" d="M149.521,-297.463C144.724,-288.589 138.798,-277.626 133.447,-267.728"/>
<polygon fill="black" stroke="black" points="136.384,-265.8 128.55,-258.668 130.226,-269.129 136.384,-265.8"/>
</g>
<!-- Add(Integer(3), Mul(Integer(2), Pow(Symbol(x), Integer(2))))_(1,) -->
<g id="node7" class="node"><title>Add(Integer(3), Mul(Integer(2), Pow(Symbol(x), Integer(2))))_(1,)</title>
<ellipse fill="none" stroke="black" cx="199" cy="-241" rx="29.9071" ry="18.3848"/>
<text text-anchor="middle" x="199" y="-237.4" font-family="Times Roman,serif" font-size="14.00">Add</text>
</g>
<!-- Mul(Add(Integer(3), Mul(Integer(2), Pow(Symbol(x), Integer(2)))), Pow(Add(Integer(5), Symbol(y)), NegativeOne()))_()&#45;&gt;Add(Integer(3), Mul(Integer(2), Pow(Symbol(x), Integer(2))))_(1,) -->
<g id="edge4" class="edge"><title>Mul(Add(Integer(3), Mul(Integer(2), Pow(Symbol(x), Integer(2)))), Pow(Add(Integer(5), Symbol(y)), NegativeOne()))_()&#45;&gt;Add(Integer(3), Mul(Integer(2), Pow(Symbol(x), Integer(2))))_(1,)</title>
<path fill="none" stroke="black" d="M168.479,-297.463C173.276,-288.589 179.202,-277.626 184.553,-267.728"/>
<polygon fill="black" stroke="black" points="187.774,-269.129 189.45,-258.668 181.616,-265.8 187.774,-269.129"/>
</g>
<!-- Add(Integer(5), Symbol(y))_(0, 0) -->
<g id="node3" class="node"><title>Add(Integer(5), Symbol(y))_(0, 0)</title>
<ellipse fill="none" stroke="black" cx="46" cy="-167" rx="29.9071" ry="18.3848"/>
<text text-anchor="middle" x="46" y="-163.4" font-family="Times Roman,serif" font-size="14.00">Add</text>
</g>
<!-- Pow(Add(Integer(5), Symbol(y)), NegativeOne())_(0,)&#45;&gt;Add(Integer(5), Symbol(y))_(0, 0) -->
<g id="edge6" class="edge"><title>Pow(Add(Integer(5), Symbol(y)), NegativeOne())_(0,)&#45;&gt;Add(Integer(5), Symbol(y))_(0, 0)</title>
<path fill="none" stroke="black" d="M102.799,-224.577C92.8333,-214.475 79.9076,-201.372 68.9048,-190.219"/>
<polygon fill="black" stroke="black" points="71.1692,-187.53 61.6547,-182.869 66.1859,-192.446 71.1692,-187.53"/>
</g>
<!-- NegativeOne()_(0, 1) -->
<g id="node6" class="node"><title>NegativeOne()_(0, 1)</title>
<ellipse fill="none" stroke="black" cx="121" cy="-167" rx="27" ry="18.3848"/>
<text text-anchor="middle" x="121" y="-163.4" font-family="Times Roman,serif" font-size="14.00">&#45;1</text>
</g>
<!-- Pow(Add(Integer(5), Symbol(y)), NegativeOne())_(0,)&#45;&gt;NegativeOne()_(0, 1) -->
<g id="edge8" class="edge"><title>Pow(Add(Integer(5), Symbol(y)), NegativeOne())_(0,)&#45;&gt;NegativeOne()_(0, 1)</title>
<path fill="none" stroke="black" d="M119.505,-222.327C119.723,-214.264 119.982,-204.648 120.224,-195.711"/>
<polygon fill="black" stroke="black" points="123.724,-195.758 120.495,-185.667 116.726,-195.569 123.724,-195.758"/>
</g>
<!-- Integer(5)_(0, 0, 0) -->
<g id="node4" class="node"><title>Integer(5)_(0, 0, 0)</title>
<ellipse fill="none" stroke="black" cx="27" cy="-93" rx="27" ry="18.3848"/>
<text text-anchor="middle" x="27" y="-89.4" font-family="Times Roman,serif" font-size="14.00">5</text>
</g>
<!-- Add(Integer(5), Symbol(y))_(0, 0)&#45;&gt;Integer(5)_(0, 0, 0) -->
<g id="edge10" class="edge"><title>Add(Integer(5), Symbol(y))_(0, 0)&#45;&gt;Integer(5)_(0, 0, 0)</title>
<path fill="none" stroke="black" d="M41.3034,-148.708C39.1795,-140.436 36.6211,-130.472 34.2587,-121.271"/>
<polygon fill="black" stroke="black" points="37.5855,-120.154 31.7084,-111.338 30.8054,-121.894 37.5855,-120.154"/>
</g>
<!-- Symbol(y)_(0, 0, 1) -->
<g id="node5" class="node"><title>Symbol(y)_(0, 0, 1)</title>
<ellipse fill="none" stroke="black" cx="99" cy="-93" rx="27" ry="18.3848"/>
<text text-anchor="middle" x="99" y="-89.4" font-family="Times Roman,serif" font-size="14.00">y</text>
</g>
<!-- Add(Integer(5), Symbol(y))_(0, 0)&#45;&gt;Symbol(y)_(0, 0, 1) -->
<g id="edge12" class="edge"><title>Add(Integer(5), Symbol(y))_(0, 0)&#45;&gt;Symbol(y)_(0, 0, 1)</title>
<path fill="none" stroke="black" d="M58.2925,-149.837C65.0295,-140.43 73.506,-128.595 80.9775,-118.164"/>
<polygon fill="black" stroke="black" points="83.9796,-119.983 86.9569,-109.815 78.2886,-115.907 83.9796,-119.983"/>
</g>
<!-- Integer(3)_(1, 0) -->
<g id="node8" class="node"><title>Integer(3)_(1, 0)</title>
<ellipse fill="none" stroke="black" cx="197" cy="-167" rx="27" ry="18.3848"/>
<text text-anchor="middle" x="197" y="-163.4" font-family="Times Roman,serif" font-size="14.00">3</text>
</g>
<!-- Add(Integer(3), Mul(Integer(2), Pow(Symbol(x), Integer(2))))_(1,)&#45;&gt;Integer(3)_(1, 0) -->
<g id="edge14" class="edge"><title>Add(Integer(3), Mul(Integer(2), Pow(Symbol(x), Integer(2))))_(1,)&#45;&gt;Integer(3)_(1, 0)</title>
<path fill="none" stroke="black" d="M198.495,-222.327C198.277,-214.264 198.018,-204.648 197.776,-195.711"/>
<polygon fill="black" stroke="black" points="201.274,-195.569 197.505,-185.667 194.276,-195.758 201.274,-195.569"/>
</g>
<!-- Mul(Integer(2), Pow(Symbol(x), Integer(2)))_(1, 1) -->
<g id="node9" class="node"><title>Mul(Integer(2), Pow(Symbol(x), Integer(2)))_(1, 1)</title>
<ellipse fill="none" stroke="black" cx="271" cy="-167" rx="28.9914" ry="18.3848"/>
<text text-anchor="middle" x="271" y="-163.4" font-family="Times Roman,serif" font-size="14.00">Mul</text>
</g>
<!-- Add(Integer(3), Mul(Integer(2), Pow(Symbol(x), Integer(2))))_(1,)&#45;&gt;Mul(Integer(2), Pow(Symbol(x), Integer(2)))_(1, 1) -->
<g id="edge16" class="edge"><title>Add(Integer(3), Mul(Integer(2), Pow(Symbol(x), Integer(2))))_(1,)&#45;&gt;Mul(Integer(2), Pow(Symbol(x), Integer(2)))_(1, 1)</title>
<path fill="none" stroke="black" d="M214.623,-224.943C224.503,-214.789 237.435,-201.497 248.421,-190.206"/>
<polygon fill="black" stroke="black" points="251.19,-192.379 255.655,-182.771 246.173,-187.498 251.19,-192.379"/>
</g>
<!-- Integer(2)_(1, 1, 0) -->
<g id="node10" class="node"><title>Integer(2)_(1, 1, 0)</title>
<ellipse fill="none" stroke="black" cx="209" cy="-93" rx="27" ry="18.3848"/>
<text text-anchor="middle" x="209" y="-89.4" font-family="Times Roman,serif" font-size="14.00">2</text>
</g>
<!-- Mul(Integer(2), Pow(Symbol(x), Integer(2)))_(1, 1)&#45;&gt;Integer(2)_(1, 1, 0) -->
<g id="edge18" class="edge"><title>Mul(Integer(2), Pow(Symbol(x), Integer(2)))_(1, 1)&#45;&gt;Integer(2)_(1, 1, 0)</title>
<path fill="none" stroke="black" d="M257.24,-150.577C248.996,-140.737 238.366,-128.05 229.184,-117.091"/>
<polygon fill="black" stroke="black" points="231.613,-114.54 222.508,-109.122 226.247,-119.035 231.613,-114.54"/>
</g>
<!-- Pow(Symbol(x), Integer(2))_(1, 1, 1) -->
<g id="node11" class="node"><title>Pow(Symbol(x), Integer(2))_(1, 1, 1)</title>
<ellipse fill="none" stroke="black" cx="286" cy="-93" rx="32.0265" ry="18.3848"/>
<text text-anchor="middle" x="286" y="-89.4" font-family="Times Roman,serif" font-size="14.00">Pow</text>
</g>
<!-- Mul(Integer(2), Pow(Symbol(x), Integer(2)))_(1, 1)&#45;&gt;Pow(Symbol(x), Integer(2))_(1, 1, 1) -->
<g id="edge20" class="edge"><title>Mul(Integer(2), Pow(Symbol(x), Integer(2)))_(1, 1)&#45;&gt;Pow(Symbol(x), Integer(2))_(1, 1, 1)</title>
<path fill="none" stroke="black" d="M274.785,-148.327C276.45,-140.114 278.441,-130.29 280.281,-121.214"/>
<polygon fill="black" stroke="black" points="283.712,-121.907 282.268,-111.411 276.851,-120.516 283.712,-121.907"/>
</g>
<!-- Symbol(x)_(1, 1, 1, 0) -->
<g id="node12" class="node"><title>Symbol(x)_(1, 1, 1, 0)</title>
<ellipse fill="none" stroke="black" cx="250" cy="-19" rx="27" ry="18.3848"/>
<text text-anchor="middle" x="250" y="-15.4" font-family="Times Roman,serif" font-size="14.00">x</text>
</g>
<!-- Pow(Symbol(x), Integer(2))_(1, 1, 1)&#45;&gt;Symbol(x)_(1, 1, 1, 0) -->
<g id="edge22" class="edge"><title>Pow(Symbol(x), Integer(2))_(1, 1, 1)&#45;&gt;Symbol(x)_(1, 1, 1, 0)</title>
<path fill="none" stroke="black" d="M277.285,-75.0867C273.04,-66.3607 267.846,-55.6843 263.134,-45.9971"/>
<polygon fill="black" stroke="black" points="266.156,-44.2096 258.634,-36.7484 259.862,-47.2719 266.156,-44.2096"/>
</g>
<!-- Integer(2)_(1, 1, 1, 1) -->
<g id="node13" class="node"><title>Integer(2)_(1, 1, 1, 1)</title>
<ellipse fill="none" stroke="black" cx="322" cy="-19" rx="27" ry="18.3848"/>
<text text-anchor="middle" x="322" y="-15.4" font-family="Times Roman,serif" font-size="14.00">2</text>
</g>
<!-- Pow(Symbol(x), Integer(2))_(1, 1, 1)&#45;&gt;Integer(2)_(1, 1, 1, 1) -->
<g id="edge24" class="edge"><title>Pow(Symbol(x), Integer(2))_(1, 1, 1)&#45;&gt;Integer(2)_(1, 1, 1, 1)</title>
<path fill="none" stroke="black" d="M294.715,-75.0867C298.96,-66.3607 304.154,-55.6843 308.866,-45.9971"/>
<polygon fill="black" stroke="black" points="312.138,-47.2719 313.366,-36.7484 305.844,-44.2096 312.138,-47.2719"/>
</g>
</g>
</svg>
