<?xml version="1.0" encoding="UTF-8" standalone="no"?>
<!DOCTYPE svg PUBLIC "-//W3C//DTD SVG 1.1//EN"
 "http://www.w3.org/Graphics/SVG/1.1/DTD/svg11.dtd">
<!-- Generated by graphviz version 2.36.0 (20140111.2315)
 -->
<!-- Title: %3 Pages: 1 -->
<svg width="320pt" height="548pt"
 viewBox="0.00 0.00 320.00 548.00" xmlns="http://www.w3.org/2000/svg" xmlns:xlink="http://www.w3.org/1999/xlink">
<g id="graph0" class="graph" transform="scale(1 1) rotate(0) translate(4 544)">
<title>%3</title>
<polygon fill="white" stroke="none" points="-4,4 -4,-544 316,-544 316,4 -4,4"/>
<!-- Integral(Mul(Add(Integer(2), Mul(Integer(2), Symbol(x))), Pow(Add(One(), Mul(NegativeOne(), Pow(Add(One(), Symbol(x)), Integer(2)))), NegativeOne())), Tuple(Symbol(x)))_() -->
<g id="node1" class="node"><title>Integral(Mul(Add(Integer(2), Mul(Integer(2), Symbol(x))), Pow(Add(One(), Mul(NegativeOne(), Pow(Add(One(), Symbol(x)), Integer(2)))), NegativeOne())), Tuple(Symbol(x)))_()</title>
<ellipse fill="none" stroke="black" cx="243" cy="-522" rx="38.0212" ry="18"/>
<text text-anchor="middle" x="243" y="-518.3" font-family="Times,serif" font-size="14.00">Integral</text>
</g>
<!-- Mul(Add(Integer(2), Mul(Integer(2), Symbol(x))), Pow(Add(One(), Mul(NegativeOne(), Pow(Add(One(), Symbol(x)), Integer(2)))), NegativeOne()))_(0,) -->
<g id="node2" class="node"><title>Mul(Add(Integer(2), Mul(Integer(2), Symbol(x))), Pow(Add(One(), Mul(NegativeOne(), Pow(Add(One(), Symbol(x)), Integer(2)))), NegativeOne()))_(0,)</title>
<ellipse fill="none" stroke="black" cx="205" cy="-450" rx="27" ry="18"/>
<text text-anchor="middle" x="205" y="-446.3" font-family="Times,serif" font-size="14.00">Mul</text>
</g>
<!-- Integral(Mul(Add(Integer(2), Mul(Integer(2), Symbol(x))), Pow(Add(One(), Mul(NegativeOne(), Pow(Add(One(), Symbol(x)), Integer(2)))), NegativeOne())), Tuple(Symbol(x)))_()&#45;&gt;Mul(Add(Integer(2), Mul(Integer(2), Symbol(x))), Pow(Add(One(), Mul(NegativeOne(), Pow(Add(One(), Symbol(x)), Integer(2)))), NegativeOne()))_(0,) -->
<g id="edge1" class="edge"><title>Integral(Mul(Add(Integer(2), Mul(Integer(2), Symbol(x))), Pow(Add(One(), Mul(NegativeOne(), Pow(Add(One(), Symbol(x)), Integer(2)))), NegativeOne())), Tuple(Symbol(x)))_()&#45;&gt;Mul(Add(Integer(2), Mul(Integer(2), Symbol(x))), Pow(Add(One(), Mul(NegativeOne(), Pow(Add(One(), Symbol(x)), Integer(2)))), NegativeOne()))_(0,)</title>
<path fill="none" stroke="black" d="M233.995,-504.411C229.451,-496.042 223.842,-485.71 218.772,-476.37"/>
<polygon fill="black" stroke="black" points="221.788,-474.589 213.941,-467.47 215.636,-477.928 221.788,-474.589"/>
</g>
<!-- Tuple(Symbol(x))_(1,) -->
<g id="node19" class="node"><title>Tuple(Symbol(x))_(1,)</title>
<ellipse fill="none" stroke="blue" cx="281" cy="-450" rx="31.2965" ry="18"/>
<text text-anchor="middle" x="281" y="-446.3" font-family="Times,serif" font-size="14.00">Tuple</text>
</g>
<!-- Integral(Mul(Add(Integer(2), Mul(Integer(2), Symbol(x))), Pow(Add(One(), Mul(NegativeOne(), Pow(Add(One(), Symbol(x)), Integer(2)))), NegativeOne())), Tuple(Symbol(x)))_()&#45;&gt;Tuple(Symbol(x))_(1,) -->
<g id="edge2" class="edge"><title>Integral(Mul(Add(Integer(2), Mul(Integer(2), Symbol(x))), Pow(Add(One(), Mul(NegativeOne(), Pow(Add(One(), Symbol(x)), Integer(2)))), NegativeOne())), Tuple(Symbol(x)))_()&#45;&gt;Tuple(Symbol(x))_(1,)</title>
<path fill="none" stroke="black" d="M252.005,-504.411C256.549,-496.042 262.158,-485.71 267.228,-476.37"/>
<polygon fill="black" stroke="black" points="270.364,-477.928 272.059,-467.47 264.212,-474.589 270.364,-477.928"/>
</g>
<!-- Pow(Add(One(), Mul(NegativeOne(), Pow(Add(One(), Symbol(x)), Integer(2)))), NegativeOne())_(0, 0) -->
<g id="node3" class="node"><title>Pow(Add(One(), Mul(NegativeOne(), Pow(Add(One(), Symbol(x)), Integer(2)))), NegativeOne())_(0, 0)</title>
<ellipse fill="none" stroke="black" cx="135" cy="-378" rx="27" ry="18"/>
<text text-anchor="middle" x="135" y="-374.3" font-family="Times,serif" font-size="14.00">Pow</text>
</g>
<!-- Mul(Add(Integer(2), Mul(Integer(2), Symbol(x))), Pow(Add(One(), Mul(NegativeOne(), Pow(Add(One(), Symbol(x)), Integer(2)))), NegativeOne()))_(0,)&#45;&gt;Pow(Add(One(), Mul(NegativeOne(), Pow(Add(One(), Symbol(x)), Integer(2)))), NegativeOne())_(0, 0) -->
<g id="edge3" class="edge"><title>Mul(Add(Integer(2), Mul(Integer(2), Symbol(x))), Pow(Add(One(), Mul(NegativeOne(), Pow(Add(One(), Symbol(x)), Integer(2)))), NegativeOne()))_(0,)&#45;&gt;Pow(Add(One(), Mul(NegativeOne(), Pow(Add(One(), Symbol(x)), Integer(2)))), NegativeOne())_(0, 0)</title>
<path fill="none" stroke="black" d="M190.496,-434.496C180.735,-424.735 167.69,-411.69 156.7,-400.7"/>
<polygon fill="black" stroke="black" points="159.031,-398.082 149.485,-393.485 154.082,-403.031 159.031,-398.082"/>
</g>
<!-- Add(Integer(2), Mul(Integer(2), Symbol(x)))_(0, 1) -->
<g id="node14" class="node"><title>Add(Integer(2), Mul(Integer(2), Symbol(x)))_(0, 1)</title>
<ellipse fill="none" stroke="black" cx="207" cy="-378" rx="27" ry="18"/>
<text text-anchor="middle" x="207" y="-374.3" font-family="Times,serif" font-size="14.00">Add</text>
</g>
<!-- Mul(Add(Integer(2), Mul(Integer(2), Symbol(x))), Pow(Add(One(), Mul(NegativeOne(), Pow(Add(One(), Symbol(x)), Integer(2)))), NegativeOne()))_(0,)&#45;&gt;Add(Integer(2), Mul(Integer(2), Symbol(x)))_(0, 1) -->
<g id="edge4" class="edge"><title>Mul(Add(Integer(2), Mul(Integer(2), Symbol(x))), Pow(Add(One(), Mul(NegativeOne(), Pow(Add(One(), Symbol(x)), Integer(2)))), NegativeOne()))_(0,)&#45;&gt;Add(Integer(2), Mul(Integer(2), Symbol(x)))_(0, 1)</title>
<path fill="none" stroke="black" d="M205.494,-431.697C205.715,-423.983 205.98,-414.712 206.225,-406.112"/>
<polygon fill="black" stroke="black" points="209.724,-406.2 206.511,-396.104 202.727,-406 209.724,-406.2"/>
</g>
<!-- Add(One(), Mul(NegativeOne(), Pow(Add(One(), Symbol(x)), Integer(2))))_(0, 0, 0) -->
<g id="node4" class="node"><title>Add(One(), Mul(NegativeOne(), Pow(Add(One(), Symbol(x)), Integer(2))))_(0, 0, 0)</title>
<ellipse fill="none" stroke="black" cx="63" cy="-306" rx="27" ry="18"/>
<text text-anchor="middle" x="63" y="-302.3" font-family="Times,serif" font-size="14.00">Add</text>
</g>
<!-- Pow(Add(One(), Mul(NegativeOne(), Pow(Add(One(), Symbol(x)), Integer(2)))), NegativeOne())_(0, 0)&#45;&gt;Add(One(), Mul(NegativeOne(), Pow(Add(One(), Symbol(x)), Integer(2))))_(0, 0, 0) -->
<g id="edge5" class="edge"><title>Pow(Add(One(), Mul(NegativeOne(), Pow(Add(One(), Symbol(x)), Integer(2)))), NegativeOne())_(0, 0)&#45;&gt;Add(One(), Mul(NegativeOne(), Pow(Add(One(), Symbol(x)), Integer(2))))_(0, 0, 0)</title>
<path fill="none" stroke="black" d="M120.43,-362.834C110.25,-352.938 96.4761,-339.546 84.9694,-328.359"/>
<polygon fill="black" stroke="black" points="87.4055,-325.846 77.7957,-321.385 82.5259,-330.865 87.4055,-325.846"/>
</g>
<!-- NegativeOne()_(0, 0, 1) -->
<g id="node13" class="node"><title>NegativeOne()_(0, 0, 1)</title>
<ellipse fill="none" stroke="black" cx="135" cy="-306" rx="27" ry="18"/>
<text text-anchor="middle" x="135" y="-302.3" font-family="Times,serif" font-size="14.00">&#45;1</text>
</g>
<!-- Pow(Add(One(), Mul(NegativeOne(), Pow(Add(One(), Symbol(x)), Integer(2)))), NegativeOne())_(0, 0)&#45;&gt;NegativeOne()_(0, 0, 1) -->
<g id="edge6" class="edge"><title>Pow(Add(One(), Mul(NegativeOne(), Pow(Add(One(), Symbol(x)), Integer(2)))), NegativeOne())_(0, 0)&#45;&gt;NegativeOne()_(0, 0, 1)</title>
<path fill="none" stroke="black" d="M135,-359.697C135,-351.983 135,-342.712 135,-334.112"/>
<polygon fill="black" stroke="black" points="138.5,-334.104 135,-324.104 131.5,-334.104 138.5,-334.104"/>
</g>
<!-- One()_(0, 0, 0, 0) -->
<g id="node5" class="node"><title>One()_(0, 0, 0, 0)</title>
<ellipse fill="none" stroke="black" cx="27" cy="-234" rx="27" ry="18"/>
<text text-anchor="middle" x="27" y="-230.3" font-family="Times,serif" font-size="14.00">1</text>
</g>
<!-- Add(One(), Mul(NegativeOne(), Pow(Add(One(), Symbol(x)), Integer(2))))_(0, 0, 0)&#45;&gt;One()_(0, 0, 0, 0) -->
<g id="edge7" class="edge"><title>Add(One(), Mul(NegativeOne(), Pow(Add(One(), Symbol(x)), Integer(2))))_(0, 0, 0)&#45;&gt;One()_(0, 0, 0, 0)</title>
<path fill="none" stroke="black" d="M54.6504,-288.765C50.2885,-280.283 44.8531,-269.714 39.9587,-260.197"/>
<polygon fill="black" stroke="black" points="42.9904,-258.439 35.3043,-251.147 36.7654,-261.641 42.9904,-258.439"/>
</g>
<!-- Mul(NegativeOne(), Pow(Add(One(), Symbol(x)), Integer(2)))_(0, 0, 0, 1) -->
<g id="node6" class="node"><title>Mul(NegativeOne(), Pow(Add(One(), Symbol(x)), Integer(2)))_(0, 0, 0, 1)</title>
<ellipse fill="none" stroke="black" cx="99" cy="-234" rx="27" ry="18"/>
<text text-anchor="middle" x="99" y="-230.3" font-family="Times,serif" font-size="14.00">Mul</text>
</g>
<!-- Add(One(), Mul(NegativeOne(), Pow(Add(One(), Symbol(x)), Integer(2))))_(0, 0, 0)&#45;&gt;Mul(NegativeOne(), Pow(Add(One(), Symbol(x)), Integer(2)))_(0, 0, 0, 1) -->
<g id="edge8" class="edge"><title>Add(One(), Mul(NegativeOne(), Pow(Add(One(), Symbol(x)), Integer(2))))_(0, 0, 0)&#45;&gt;Mul(NegativeOne(), Pow(Add(One(), Symbol(x)), Integer(2)))_(0, 0, 0, 1)</title>
<path fill="none" stroke="black" d="M71.3496,-288.765C75.7115,-280.283 81.1469,-269.714 86.0413,-260.197"/>
<polygon fill="black" stroke="black" points="89.2346,-261.641 90.6957,-251.147 83.0096,-258.439 89.2346,-261.641"/>
</g>
<!-- NegativeOne()_(0, 0, 0, 1, 0) -->
<g id="node7" class="node"><title>NegativeOne()_(0, 0, 0, 1, 0)</title>
<ellipse fill="none" stroke="black" cx="63" cy="-162" rx="27" ry="18"/>
<text text-anchor="middle" x="63" y="-158.3" font-family="Times,serif" font-size="14.00">&#45;1</text>
</g>
<!-- Mul(NegativeOne(), Pow(Add(One(), Symbol(x)), Integer(2)))_(0, 0, 0, 1)&#45;&gt;NegativeOne()_(0, 0, 0, 1, 0) -->
<g id="edge9" class="edge"><title>Mul(NegativeOne(), Pow(Add(One(), Symbol(x)), Integer(2)))_(0, 0, 0, 1)&#45;&gt;NegativeOne()_(0, 0, 0, 1, 0)</title>
<path fill="none" stroke="black" d="M90.6504,-216.765C86.2885,-208.283 80.8531,-197.714 75.9587,-188.197"/>
<polygon fill="black" stroke="black" points="78.9904,-186.439 71.3043,-179.147 72.7654,-189.641 78.9904,-186.439"/>
</g>
<!-- Pow(Add(One(), Symbol(x)), Integer(2))_(0, 0, 0, 1, 1) -->
<g id="node8" class="node"><title>Pow(Add(One(), Symbol(x)), Integer(2))_(0, 0, 0, 1, 1)</title>
<ellipse fill="none" stroke="black" cx="135" cy="-162" rx="27" ry="18"/>
<text text-anchor="middle" x="135" y="-158.3" font-family="Times,serif" font-size="14.00">Pow</text>
</g>
<!-- Mul(NegativeOne(), Pow(Add(One(), Symbol(x)), Integer(2)))_(0, 0, 0, 1)&#45;&gt;Pow(Add(One(), Symbol(x)), Integer(2))_(0, 0, 0, 1, 1) -->
<g id="edge10" class="edge"><title>Mul(NegativeOne(), Pow(Add(One(), Symbol(x)), Integer(2)))_(0, 0, 0, 1)&#45;&gt;Pow(Add(One(), Symbol(x)), Integer(2))_(0, 0, 0, 1, 1)</title>
<path fill="none" stroke="black" d="M107.35,-216.765C111.712,-208.283 117.147,-197.714 122.041,-188.197"/>
<polygon fill="black" stroke="black" points="125.235,-189.641 126.696,-179.147 119.01,-186.439 125.235,-189.641"/>
</g>
<!-- Add(One(), Symbol(x))_(0, 0, 0, 1, 1, 0) -->
<g id="node9" class="node"><title>Add(One(), Symbol(x))_(0, 0, 0, 1, 1, 0)</title>
<ellipse fill="none" stroke="black" cx="99" cy="-90" rx="27" ry="18"/>
<text text-anchor="middle" x="99" y="-86.3" font-family="Times,serif" font-size="14.00">Add</text>
</g>
<!-- Pow(Add(One(), Symbol(x)), Integer(2))_(0, 0, 0, 1, 1)&#45;&gt;Add(One(), Symbol(x))_(0, 0, 0, 1, 1, 0) -->
<g id="edge11" class="edge"><title>Pow(Add(One(), Symbol(x)), Integer(2))_(0, 0, 0, 1, 1)&#45;&gt;Add(One(), Symbol(x))_(0, 0, 0, 1, 1, 0)</title>
<path fill="none" stroke="black" d="M126.65,-144.765C122.288,-136.283 116.853,-125.714 111.959,-116.197"/>
<polygon fill="black" stroke="black" points="114.99,-114.439 107.304,-107.147 108.765,-117.641 114.99,-114.439"/>
</g>
<!-- Integer(2)_(0, 0, 0, 1, 1, 1) -->
<g id="node12" class="node"><title>Integer(2)_(0, 0, 0, 1, 1, 1)</title>
<ellipse fill="none" stroke="black" cx="171" cy="-90" rx="27" ry="18"/>
<text text-anchor="middle" x="171" y="-86.3" font-family="Times,serif" font-size="14.00">2</text>
</g>
<!-- Pow(Add(One(), Symbol(x)), Integer(2))_(0, 0, 0, 1, 1)&#45;&gt;Integer(2)_(0, 0, 0, 1, 1, 1) -->
<g id="edge12" class="edge"><title>Pow(Add(One(), Symbol(x)), Integer(2))_(0, 0, 0, 1, 1)&#45;&gt;Integer(2)_(0, 0, 0, 1, 1, 1)</title>
<path fill="none" stroke="black" d="M143.35,-144.765C147.712,-136.283 153.147,-125.714 158.041,-116.197"/>
<polygon fill="black" stroke="black" points="161.235,-117.641 162.696,-107.147 155.01,-114.439 161.235,-117.641"/>
</g>
<!-- One()_(0, 0, 0, 1, 1, 0, 0) -->
<g id="node10" class="node"><title>One()_(0, 0, 0, 1, 1, 0, 0)</title>
<ellipse fill="none" stroke="black" cx="63" cy="-18" rx="27" ry="18"/>
<text text-anchor="middle" x="63" y="-14.3" font-family="Times,serif" font-size="14.00">1</text>
</g>
<!-- Add(One(), Symbol(x))_(0, 0, 0, 1, 1, 0)&#45;&gt;One()_(0, 0, 0, 1, 1, 0, 0) -->
<g id="edge13" class="edge"><title>Add(One(), Symbol(x))_(0, 0, 0, 1, 1, 0)&#45;&gt;One()_(0, 0, 0, 1, 1, 0, 0)</title>
<path fill="none" stroke="black" d="M90.6504,-72.7646C86.2885,-64.2831 80.8531,-53.7144 75.9587,-44.1974"/>
<polygon fill="black" stroke="black" points="78.9904,-42.4395 71.3043,-35.1473 72.7654,-45.6409 78.9904,-42.4395"/>
</g>
<!-- Symbol(x)_(0, 0, 0, 1, 1, 0, 1) -->
<g id="node11" class="node"><title>Symbol(x)_(0, 0, 0, 1, 1, 0, 1)</title>
<ellipse fill="none" stroke="black" cx="135" cy="-18" rx="27" ry="18"/>
<text text-anchor="middle" x="135" y="-14.3" font-family="Times,serif" font-size="14.00">x</text>
</g>
<!-- Add(One(), Symbol(x))_(0, 0, 0, 1, 1, 0)&#45;&gt;Symbol(x)_(0, 0, 0, 1, 1, 0, 1) -->
<g id="edge14" class="edge"><title>Add(One(), Symbol(x))_(0, 0, 0, 1, 1, 0)&#45;&gt;Symbol(x)_(0, 0, 0, 1, 1, 0, 1)</title>
<path fill="none" stroke="black" d="M107.35,-72.7646C111.712,-64.2831 117.147,-53.7144 122.041,-44.1974"/>
<polygon fill="black" stroke="black" points="125.235,-45.6409 126.696,-35.1473 119.01,-42.4395 125.235,-45.6409"/>
</g>
<!-- Integer(2)_(0, 1, 0) -->
<g id="node15" class="node"><title>Integer(2)_(0, 1, 0)</title>
<ellipse fill="none" stroke="black" cx="207" cy="-306" rx="27" ry="18"/>
<text text-anchor="middle" x="207" y="-302.3" font-family="Times,serif" font-size="14.00">2</text>
</g>
<!-- Add(Integer(2), Mul(Integer(2), Symbol(x)))_(0, 1)&#45;&gt;Integer(2)_(0, 1, 0) -->
<g id="edge15" class="edge"><title>Add(Integer(2), Mul(Integer(2), Symbol(x)))_(0, 1)&#45;&gt;Integer(2)_(0, 1, 0)</title>
<path fill="none" stroke="black" d="M207,-359.697C207,-351.983 207,-342.712 207,-334.112"/>
<polygon fill="black" stroke="black" points="210.5,-334.104 207,-324.104 203.5,-334.104 210.5,-334.104"/>
</g>
<!-- Mul(Integer(2), Symbol(x))_(0, 1, 1) -->
<g id="node16" class="node"><title>Mul(Integer(2), Symbol(x))_(0, 1, 1)</title>
<ellipse fill="none" stroke="black" cx="279" cy="-306" rx="27" ry="18"/>
<text text-anchor="middle" x="279" y="-302.3" font-family="Times,serif" font-size="14.00">Mul</text>
</g>
<!-- Add(Integer(2), Mul(Integer(2), Symbol(x)))_(0, 1)&#45;&gt;Mul(Integer(2), Symbol(x))_(0, 1, 1) -->
<g id="edge16" class="edge"><title>Add(Integer(2), Mul(Integer(2), Symbol(x)))_(0, 1)&#45;&gt;Mul(Integer(2), Symbol(x))_(0, 1, 1)</title>
<path fill="none" stroke="black" d="M221.57,-362.834C231.75,-352.938 245.524,-339.546 257.031,-328.359"/>
<polygon fill="black" stroke="black" points="259.474,-330.865 264.204,-321.385 254.595,-325.846 259.474,-330.865"/>
</g>
<!-- Integer(2)_(0, 1, 1, 0) -->
<g id="node17" class="node"><title>Integer(2)_(0, 1, 1, 0)</title>
<ellipse fill="none" stroke="black" cx="207" cy="-234" rx="27" ry="18"/>
<text text-anchor="middle" x="207" y="-230.3" font-family="Times,serif" font-size="14.00">2</text>
</g>
<!-- Mul(Integer(2), Symbol(x))_(0, 1, 1)&#45;&gt;Integer(2)_(0, 1, 1, 0) -->
<g id="edge17" class="edge"><title>Mul(Integer(2), Symbol(x))_(0, 1, 1)&#45;&gt;Integer(2)_(0, 1, 1, 0)</title>
<path fill="none" stroke="black" d="M264.43,-290.834C254.25,-280.938 240.476,-267.546 228.969,-256.359"/>
<polygon fill="black" stroke="black" points="231.405,-253.846 221.796,-249.385 226.526,-258.865 231.405,-253.846"/>
</g>
<!-- Symbol(x)_(0, 1, 1, 1) -->
<g id="node18" class="node"><title>Symbol(x)_(0, 1, 1, 1)</title>
<ellipse fill="none" stroke="black" cx="279" cy="-234" rx="27" ry="18"/>
<text text-anchor="middle" x="279" y="-230.3" font-family="Times,serif" font-size="14.00">x</text>
</g>
<!-- Mul(Integer(2), Symbol(x))_(0, 1, 1)&#45;&gt;Symbol(x)_(0, 1, 1, 1) -->
<g id="edge18" class="edge"><title>Mul(Integer(2), Symbol(x))_(0, 1, 1)&#45;&gt;Symbol(x)_(0, 1, 1, 1)</title>
<path fill="none" stroke="black" d="M279,-287.697C279,-279.983 279,-270.712 279,-262.112"/>
<polygon fill="black" stroke="black" points="282.5,-262.104 279,-252.104 275.5,-262.104 282.5,-262.104"/>
</g>
<!-- Symbol(x)_(1, 0) -->
<g id="node20" class="node"><title>Symbol(x)_(1, 0)</title>
<ellipse fill="none" stroke="black" cx="281" cy="-378" rx="27" ry="18"/>
<text text-anchor="middle" x="281" y="-374.3" font-family="Times,serif" font-size="14.00">x</text>
</g>
<!-- Tuple(Symbol(x))_(1,)&#45;&gt;Symbol(x)_(1, 0) -->
<g id="edge19" class="edge"><title>Tuple(Symbol(x))_(1,)&#45;&gt;Symbol(x)_(1, 0)</title>
<path fill="none" stroke="black" d="M281,-431.697C281,-423.983 281,-414.712 281,-406.112"/>
<polygon fill="black" stroke="black" points="284.5,-406.104 281,-396.104 277.5,-406.104 284.5,-406.104"/>
</g>
</g>
</svg>
